<mxfile host="Electron" modified="2024-02-07T15:07:44.970Z" agent="Mozilla/5.0 (X11; Linux x86_64) AppleWebKit/537.36 (KHTML, like Gecko) draw.io/22.1.21 Chrome/120.0.6099.109 Electron/28.1.0 Safari/537.36" etag="vQL5Z_4tJ1IFXfPbHWxV" version="22.1.21" type="device">
  <diagram id="C5RBs43oDa-KdzZeNtuy" name="Page-1">
    <mxGraphModel dx="2206" dy="1357" grid="1" gridSize="10" guides="1" tooltips="1" connect="1" arrows="1" fold="1" page="1" pageScale="1" pageWidth="827" pageHeight="1169" math="0" shadow="0">
      <root>
        <mxCell id="WIyWlLk6GJQsqaUBKTNV-0" />
        <mxCell id="WIyWlLk6GJQsqaUBKTNV-1" parent="WIyWlLk6GJQsqaUBKTNV-0" />
        <mxCell id="nWd9DYiu0VlQMOzA8pWd-0" value="Processor.FloodProcessor&lt;br&gt;FloodProcessor.flood()" style="swimlane;whiteSpace=wrap;html=1;startSize=30;" parent="WIyWlLk6GJQsqaUBKTNV-1" vertex="1">
          <mxGeometry x="60" y="1200" width="180" height="530" as="geometry">
            <mxRectangle x="80" y="890" width="250" height="30" as="alternateBounds" />
          </mxGeometry>
        </mxCell>
        <mxCell id="kWIKreuAtAlw_i0hymki-47" style="edgeStyle=orthogonalEdgeStyle;rounded=0;orthogonalLoop=1;jettySize=auto;html=1;exitX=0.5;exitY=1;exitDx=0;exitDy=0;entryX=0.5;entryY=0;entryDx=0;entryDy=0;" edge="1" parent="nWd9DYiu0VlQMOzA8pWd-0" source="kWIKreuAtAlw_i0hymki-40" target="kWIKreuAtAlw_i0hymki-41">
          <mxGeometry relative="1" as="geometry" />
        </mxCell>
        <mxCell id="kWIKreuAtAlw_i0hymki-40" value="Compute window and size" style="rounded=1;whiteSpace=wrap;html=1;fontSize=12;glass=0;strokeWidth=1;shadow=0;" vertex="1" parent="nWd9DYiu0VlQMOzA8pWd-0">
          <mxGeometry x="30" y="45" width="120" height="30" as="geometry" />
        </mxCell>
        <mxCell id="kWIKreuAtAlw_i0hymki-48" style="edgeStyle=orthogonalEdgeStyle;rounded=0;orthogonalLoop=1;jettySize=auto;html=1;exitX=0.5;exitY=1;exitDx=0;exitDy=0;entryX=0.5;entryY=0;entryDx=0;entryDy=0;" edge="1" parent="nWd9DYiu0VlQMOzA8pWd-0" source="kWIKreuAtAlw_i0hymki-41" target="kWIKreuAtAlw_i0hymki-42">
          <mxGeometry relative="1" as="geometry" />
        </mxCell>
        <mxCell id="kWIKreuAtAlw_i0hymki-41" value="Load height map" style="rounded=1;whiteSpace=wrap;html=1;fontSize=12;glass=0;strokeWidth=1;shadow=0;" vertex="1" parent="nWd9DYiu0VlQMOzA8pWd-0">
          <mxGeometry x="30" y="105" width="120" height="30" as="geometry" />
        </mxCell>
        <mxCell id="kWIKreuAtAlw_i0hymki-49" style="edgeStyle=orthogonalEdgeStyle;rounded=0;orthogonalLoop=1;jettySize=auto;html=1;exitX=0.5;exitY=1;exitDx=0;exitDy=0;entryX=0.5;entryY=0;entryDx=0;entryDy=0;" edge="1" parent="nWd9DYiu0VlQMOzA8pWd-0" source="kWIKreuAtAlw_i0hymki-42" target="kWIKreuAtAlw_i0hymki-43">
          <mxGeometry relative="1" as="geometry" />
        </mxCell>
        <mxCell id="kWIKreuAtAlw_i0hymki-42" value="Load semantic map" style="rounded=1;whiteSpace=wrap;html=1;fontSize=12;glass=0;strokeWidth=1;shadow=0;" vertex="1" parent="nWd9DYiu0VlQMOzA8pWd-0">
          <mxGeometry x="30" y="165" width="120" height="30" as="geometry" />
        </mxCell>
        <mxCell id="kWIKreuAtAlw_i0hymki-50" style="edgeStyle=orthogonalEdgeStyle;rounded=0;orthogonalLoop=1;jettySize=auto;html=1;exitX=0.5;exitY=1;exitDx=0;exitDy=0;entryX=0.5;entryY=0;entryDx=0;entryDy=0;" edge="1" parent="nWd9DYiu0VlQMOzA8pWd-0" source="kWIKreuAtAlw_i0hymki-43" target="kWIKreuAtAlw_i0hymki-44">
          <mxGeometry relative="1" as="geometry" />
        </mxCell>
        <mxCell id="kWIKreuAtAlw_i0hymki-43" value="Compute the distance between each point and its neighbors" style="rounded=1;whiteSpace=wrap;html=1;fontSize=12;glass=0;strokeWidth=1;shadow=0;" vertex="1" parent="nWd9DYiu0VlQMOzA8pWd-0">
          <mxGeometry x="30" y="225" width="120" height="50" as="geometry" />
        </mxCell>
        <mxCell id="kWIKreuAtAlw_i0hymki-51" style="edgeStyle=orthogonalEdgeStyle;rounded=0;orthogonalLoop=1;jettySize=auto;html=1;exitX=0.5;exitY=1;exitDx=0;exitDy=0;entryX=0.5;entryY=0;entryDx=0;entryDy=0;" edge="1" parent="nWd9DYiu0VlQMOzA8pWd-0" source="kWIKreuAtAlw_i0hymki-44" target="kWIKreuAtAlw_i0hymki-45">
          <mxGeometry relative="1" as="geometry" />
        </mxCell>
        <mxCell id="kWIKreuAtAlw_i0hymki-44" value="Create graph of distances" style="rounded=1;whiteSpace=wrap;html=1;fontSize=12;glass=0;strokeWidth=1;shadow=0;" vertex="1" parent="nWd9DYiu0VlQMOzA8pWd-0">
          <mxGeometry x="30" y="295" width="120" height="50" as="geometry" />
        </mxCell>
        <mxCell id="kWIKreuAtAlw_i0hymki-52" style="edgeStyle=orthogonalEdgeStyle;rounded=0;orthogonalLoop=1;jettySize=auto;html=1;exitX=0.5;exitY=1;exitDx=0;exitDy=0;" edge="1" parent="nWd9DYiu0VlQMOzA8pWd-0" source="kWIKreuAtAlw_i0hymki-45" target="kWIKreuAtAlw_i0hymki-46">
          <mxGeometry relative="1" as="geometry" />
        </mxCell>
        <mxCell id="kWIKreuAtAlw_i0hymki-45" value="Solve the distance from each point to source using Dijkstra" style="rounded=1;whiteSpace=wrap;html=1;fontSize=12;glass=0;strokeWidth=1;shadow=0;" vertex="1" parent="nWd9DYiu0VlQMOzA8pWd-0">
          <mxGeometry x="30" y="365" width="120" height="50" as="geometry" />
        </mxCell>
        <mxCell id="kWIKreuAtAlw_i0hymki-46" value="Compute flood height at each point based on distance" style="rounded=1;whiteSpace=wrap;html=1;fontSize=12;glass=0;strokeWidth=1;shadow=0;" vertex="1" parent="nWd9DYiu0VlQMOzA8pWd-0">
          <mxGeometry x="30" y="435" width="120" height="50" as="geometry" />
        </mxCell>
        <mxCell id="kWIKreuAtAlw_i0hymki-25" style="edgeStyle=orthogonalEdgeStyle;rounded=0;orthogonalLoop=1;jettySize=auto;html=1;exitX=0.5;exitY=1;exitDx=0;exitDy=0;entryX=1;entryY=1;entryDx=0;entryDy=0;" edge="1" parent="WIyWlLk6GJQsqaUBKTNV-1" source="kWIKreuAtAlw_i0hymki-0" target="kWIKreuAtAlw_i0hymki-12">
          <mxGeometry relative="1" as="geometry">
            <Array as="points">
              <mxPoint x="670" y="378" />
              <mxPoint x="530" y="378" />
              <mxPoint x="530" y="170" />
            </Array>
          </mxGeometry>
        </mxCell>
        <mxCell id="kWIKreuAtAlw_i0hymki-0" value="Utils.Rendering.&lt;br&gt;setup_compositing_height_map()" style="swimlane;whiteSpace=wrap;html=1;startSize=30;" vertex="1" parent="WIyWlLk6GJQsqaUBKTNV-1">
          <mxGeometry x="550" y="40" width="240" height="317.5" as="geometry">
            <mxRectangle x="80" y="890" width="250" height="30" as="alternateBounds" />
          </mxGeometry>
        </mxCell>
        <mxCell id="kWIKreuAtAlw_i0hymki-1" style="edgeStyle=orthogonalEdgeStyle;rounded=0;orthogonalLoop=1;jettySize=auto;html=1;exitX=0.5;exitY=1;exitDx=0;exitDy=0;entryX=0.5;entryY=0;entryDx=0;entryDy=0;" edge="1" parent="kWIKreuAtAlw_i0hymki-0" source="kWIKreuAtAlw_i0hymki-2" target="kWIKreuAtAlw_i0hymki-6">
          <mxGeometry relative="1" as="geometry" />
        </mxCell>
        <mxCell id="kWIKreuAtAlw_i0hymki-2" value="Enable Z pass" style="rounded=1;whiteSpace=wrap;html=1;fontSize=12;glass=0;strokeWidth=1;shadow=0;" vertex="1" parent="kWIKreuAtAlw_i0hymki-0">
          <mxGeometry x="40" y="120" width="130" height="30" as="geometry" />
        </mxCell>
        <mxCell id="kWIKreuAtAlw_i0hymki-3" value="" style="edgeStyle=orthogonalEdgeStyle;rounded=0;orthogonalLoop=1;jettySize=auto;html=1;" edge="1" parent="kWIKreuAtAlw_i0hymki-0" source="kWIKreuAtAlw_i0hymki-4" target="kWIKreuAtAlw_i0hymki-2">
          <mxGeometry relative="1" as="geometry" />
        </mxCell>
        <mxCell id="kWIKreuAtAlw_i0hymki-4" value="Activate compositing nodes" style="rounded=1;whiteSpace=wrap;html=1;fontSize=12;glass=0;strokeWidth=1;shadow=0;" vertex="1" parent="kWIKreuAtAlw_i0hymki-0">
          <mxGeometry x="40" y="70" width="130" height="30" as="geometry" />
        </mxCell>
        <mxCell id="kWIKreuAtAlw_i0hymki-5" style="edgeStyle=orthogonalEdgeStyle;rounded=0;orthogonalLoop=1;jettySize=auto;html=1;exitX=0.5;exitY=1;exitDx=0;exitDy=0;entryX=0.5;entryY=0;entryDx=0;entryDy=0;" edge="1" parent="kWIKreuAtAlw_i0hymki-0" source="kWIKreuAtAlw_i0hymki-6" target="kWIKreuAtAlw_i0hymki-8">
          <mxGeometry relative="1" as="geometry" />
        </mxCell>
        <mxCell id="kWIKreuAtAlw_i0hymki-6" value="Disable object index pass" style="rounded=1;whiteSpace=wrap;html=1;fontSize=12;glass=0;strokeWidth=1;shadow=0;" vertex="1" parent="kWIKreuAtAlw_i0hymki-0">
          <mxGeometry x="40" y="167.5" width="130" height="30" as="geometry" />
        </mxCell>
        <mxCell id="kWIKreuAtAlw_i0hymki-7" style="edgeStyle=orthogonalEdgeStyle;rounded=0;orthogonalLoop=1;jettySize=auto;html=1;exitX=0.5;exitY=1;exitDx=0;exitDy=0;entryX=0.5;entryY=0;entryDx=0;entryDy=0;" edge="1" parent="kWIKreuAtAlw_i0hymki-0" source="kWIKreuAtAlw_i0hymki-8" target="kWIKreuAtAlw_i0hymki-9">
          <mxGeometry relative="1" as="geometry" />
        </mxCell>
        <mxCell id="kWIKreuAtAlw_i0hymki-8" value="Configure node tree" style="rounded=1;whiteSpace=wrap;html=1;fontSize=12;glass=0;strokeWidth=1;shadow=0;" vertex="1" parent="kWIKreuAtAlw_i0hymki-0">
          <mxGeometry x="40" y="217.5" width="130" height="30" as="geometry" />
        </mxCell>
        <mxCell id="kWIKreuAtAlw_i0hymki-9" value="Adding EXR output for the depth map" style="rounded=1;whiteSpace=wrap;html=1;fontSize=12;glass=0;strokeWidth=1;shadow=0;" vertex="1" parent="kWIKreuAtAlw_i0hymki-0">
          <mxGeometry x="40" y="267.5" width="130" height="30" as="geometry" />
        </mxCell>
        <mxCell id="kWIKreuAtAlw_i0hymki-10" value="Processor.FloodProcessor.&lt;br&gt;FloodProcessor.generate_height_map()" style="swimlane;whiteSpace=wrap;html=1;startSize=30;" vertex="1" parent="WIyWlLk6GJQsqaUBKTNV-1">
          <mxGeometry x="80" y="40" width="320" height="330" as="geometry">
            <mxRectangle x="80" y="890" width="250" height="30" as="alternateBounds" />
          </mxGeometry>
        </mxCell>
        <mxCell id="kWIKreuAtAlw_i0hymki-11" value="Compute window and size" style="rounded=1;whiteSpace=wrap;html=1;fontSize=12;glass=0;strokeWidth=1;shadow=0;" vertex="1" parent="kWIKreuAtAlw_i0hymki-10">
          <mxGeometry x="90" y="50" width="120" height="30" as="geometry" />
        </mxCell>
        <mxCell id="kWIKreuAtAlw_i0hymki-15" style="edgeStyle=orthogonalEdgeStyle;rounded=0;orthogonalLoop=1;jettySize=auto;html=1;exitX=0.5;exitY=1;exitDx=0;exitDy=0;entryX=0.5;entryY=0;entryDx=0;entryDy=0;" edge="1" parent="kWIKreuAtAlw_i0hymki-10" source="kWIKreuAtAlw_i0hymki-12" target="kWIKreuAtAlw_i0hymki-13">
          <mxGeometry relative="1" as="geometry" />
        </mxCell>
        <mxCell id="kWIKreuAtAlw_i0hymki-12" value="Setup compositing" style="rounded=1;whiteSpace=wrap;html=1;fontSize=12;glass=0;strokeWidth=1;shadow=0;" vertex="1" parent="kWIKreuAtAlw_i0hymki-10">
          <mxGeometry x="90" y="100" width="120" height="30" as="geometry" />
        </mxCell>
        <mxCell id="kWIKreuAtAlw_i0hymki-24" style="edgeStyle=orthogonalEdgeStyle;rounded=0;orthogonalLoop=1;jettySize=auto;html=1;exitX=0.5;exitY=1;exitDx=0;exitDy=0;entryX=0.5;entryY=0;entryDx=0;entryDy=0;" edge="1" parent="kWIKreuAtAlw_i0hymki-10" source="kWIKreuAtAlw_i0hymki-13" target="kWIKreuAtAlw_i0hymki-23">
          <mxGeometry relative="1" as="geometry" />
        </mxCell>
        <mxCell id="kWIKreuAtAlw_i0hymki-13" value="Move camera" style="rounded=1;whiteSpace=wrap;html=1;fontSize=12;glass=0;strokeWidth=1;shadow=0;" vertex="1" parent="kWIKreuAtAlw_i0hymki-10">
          <mxGeometry x="90" y="150" width="120" height="30" as="geometry" />
        </mxCell>
        <mxCell id="kWIKreuAtAlw_i0hymki-14" style="edgeStyle=orthogonalEdgeStyle;rounded=0;orthogonalLoop=1;jettySize=auto;html=1;exitX=0.5;exitY=1;exitDx=0;exitDy=0;entryX=0.5;entryY=0;entryDx=0;entryDy=0;" edge="1" parent="kWIKreuAtAlw_i0hymki-10" source="kWIKreuAtAlw_i0hymki-11" target="kWIKreuAtAlw_i0hymki-12">
          <mxGeometry relative="1" as="geometry" />
        </mxCell>
        <mxCell id="kWIKreuAtAlw_i0hymki-23" value="Render to generate height map" style="rounded=1;whiteSpace=wrap;html=1;fontSize=12;glass=0;strokeWidth=1;shadow=0;" vertex="1" parent="kWIKreuAtAlw_i0hymki-10">
          <mxGeometry x="90" y="200" width="120" height="30" as="geometry" />
        </mxCell>
        <mxCell id="kWIKreuAtAlw_i0hymki-16" value="Processor.FloodProcessor.&lt;br&gt;FloodProcessor.generate_semantic_map()" style="swimlane;whiteSpace=wrap;html=1;startSize=30;" vertex="1" parent="WIyWlLk6GJQsqaUBKTNV-1">
          <mxGeometry x="90" y="460" width="320" height="320" as="geometry">
            <mxRectangle x="80" y="890" width="250" height="30" as="alternateBounds" />
          </mxGeometry>
        </mxCell>
        <mxCell id="kWIKreuAtAlw_i0hymki-17" value="Compute window and size" style="rounded=1;whiteSpace=wrap;html=1;fontSize=12;glass=0;strokeWidth=1;shadow=0;" vertex="1" parent="kWIKreuAtAlw_i0hymki-16">
          <mxGeometry x="90" y="50" width="120" height="30" as="geometry" />
        </mxCell>
        <mxCell id="kWIKreuAtAlw_i0hymki-18" style="edgeStyle=orthogonalEdgeStyle;rounded=0;orthogonalLoop=1;jettySize=auto;html=1;exitX=0.5;exitY=1;exitDx=0;exitDy=0;entryX=0.5;entryY=0;entryDx=0;entryDy=0;" edge="1" parent="kWIKreuAtAlw_i0hymki-16" source="kWIKreuAtAlw_i0hymki-36" target="kWIKreuAtAlw_i0hymki-20">
          <mxGeometry relative="1" as="geometry" />
        </mxCell>
        <mxCell id="kWIKreuAtAlw_i0hymki-19" value="Setup compositing" style="rounded=1;whiteSpace=wrap;html=1;fontSize=12;glass=0;strokeWidth=1;shadow=0;" vertex="1" parent="kWIKreuAtAlw_i0hymki-16">
          <mxGeometry x="90" y="100" width="120" height="30" as="geometry" />
        </mxCell>
        <mxCell id="kWIKreuAtAlw_i0hymki-20" value="Render to generate source map" style="rounded=1;whiteSpace=wrap;html=1;fontSize=12;glass=0;strokeWidth=1;shadow=0;" vertex="1" parent="kWIKreuAtAlw_i0hymki-16">
          <mxGeometry x="90" y="210" width="120" height="30" as="geometry" />
        </mxCell>
        <mxCell id="kWIKreuAtAlw_i0hymki-21" style="edgeStyle=orthogonalEdgeStyle;rounded=0;orthogonalLoop=1;jettySize=auto;html=1;exitX=0.5;exitY=1;exitDx=0;exitDy=0;entryX=0.5;entryY=0;entryDx=0;entryDy=0;" edge="1" parent="kWIKreuAtAlw_i0hymki-16" source="kWIKreuAtAlw_i0hymki-17" target="kWIKreuAtAlw_i0hymki-19">
          <mxGeometry relative="1" as="geometry" />
        </mxCell>
        <mxCell id="kWIKreuAtAlw_i0hymki-36" value="Move camera" style="rounded=1;whiteSpace=wrap;html=1;fontSize=12;glass=0;strokeWidth=1;shadow=0;" vertex="1" parent="kWIKreuAtAlw_i0hymki-16">
          <mxGeometry x="90" y="156" width="120" height="30" as="geometry" />
        </mxCell>
        <mxCell id="kWIKreuAtAlw_i0hymki-37" value="" style="edgeStyle=orthogonalEdgeStyle;rounded=0;orthogonalLoop=1;jettySize=auto;html=1;exitX=0.5;exitY=1;exitDx=0;exitDy=0;entryX=0.5;entryY=0;entryDx=0;entryDy=0;" edge="1" parent="kWIKreuAtAlw_i0hymki-16" source="kWIKreuAtAlw_i0hymki-19" target="kWIKreuAtAlw_i0hymki-36">
          <mxGeometry relative="1" as="geometry">
            <mxPoint x="240" y="590" as="sourcePoint" />
            <mxPoint x="240" y="660" as="targetPoint" />
          </mxGeometry>
        </mxCell>
        <mxCell id="kWIKreuAtAlw_i0hymki-22" style="edgeStyle=orthogonalEdgeStyle;rounded=0;orthogonalLoop=1;jettySize=auto;html=1;exitX=1;exitY=0.5;exitDx=0;exitDy=0;entryX=0.5;entryY=0;entryDx=0;entryDy=0;" edge="1" parent="WIyWlLk6GJQsqaUBKTNV-1" source="kWIKreuAtAlw_i0hymki-12" target="kWIKreuAtAlw_i0hymki-0">
          <mxGeometry relative="1" as="geometry">
            <Array as="points">
              <mxPoint x="530" y="155" />
              <mxPoint x="530" y="20" />
              <mxPoint x="670" y="20" />
            </Array>
          </mxGeometry>
        </mxCell>
        <mxCell id="kWIKreuAtAlw_i0hymki-39" style="edgeStyle=orthogonalEdgeStyle;rounded=0;orthogonalLoop=1;jettySize=auto;html=1;exitX=0.5;exitY=1;exitDx=0;exitDy=0;entryX=1;entryY=1;entryDx=0;entryDy=0;" edge="1" parent="WIyWlLk6GJQsqaUBKTNV-1" source="kWIKreuAtAlw_i0hymki-26" target="kWIKreuAtAlw_i0hymki-19">
          <mxGeometry relative="1" as="geometry">
            <Array as="points">
              <mxPoint x="670" y="735" />
              <mxPoint x="530" y="735" />
              <mxPoint x="530" y="590" />
            </Array>
          </mxGeometry>
        </mxCell>
        <mxCell id="kWIKreuAtAlw_i0hymki-26" value="Utils.Rendering.&lt;br&gt;setup_compositing_semantic_map()" style="swimlane;whiteSpace=wrap;html=1;startSize=30;" vertex="1" parent="WIyWlLk6GJQsqaUBKTNV-1">
          <mxGeometry x="555" y="425" width="230" height="290" as="geometry">
            <mxRectangle x="80" y="890" width="250" height="30" as="alternateBounds" />
          </mxGeometry>
        </mxCell>
        <mxCell id="kWIKreuAtAlw_i0hymki-27" value="Disable Z pass" style="rounded=1;whiteSpace=wrap;html=1;fontSize=12;glass=0;strokeWidth=1;shadow=0;" vertex="1" parent="kWIKreuAtAlw_i0hymki-26">
          <mxGeometry x="50" y="92.5" width="130" height="30" as="geometry" />
        </mxCell>
        <mxCell id="kWIKreuAtAlw_i0hymki-28" value="" style="edgeStyle=orthogonalEdgeStyle;rounded=0;orthogonalLoop=1;jettySize=auto;html=1;" edge="1" parent="kWIKreuAtAlw_i0hymki-26" source="kWIKreuAtAlw_i0hymki-29" target="kWIKreuAtAlw_i0hymki-27">
          <mxGeometry relative="1" as="geometry" />
        </mxCell>
        <mxCell id="kWIKreuAtAlw_i0hymki-29" value="Activate compositing nodes" style="rounded=1;whiteSpace=wrap;html=1;fontSize=12;glass=0;strokeWidth=1;shadow=0;" vertex="1" parent="kWIKreuAtAlw_i0hymki-26">
          <mxGeometry x="50" y="42.5" width="130" height="30" as="geometry" />
        </mxCell>
        <mxCell id="kWIKreuAtAlw_i0hymki-30" value="Enable object index pass" style="rounded=1;whiteSpace=wrap;html=1;fontSize=12;glass=0;strokeWidth=1;shadow=0;" vertex="1" parent="kWIKreuAtAlw_i0hymki-26">
          <mxGeometry x="50" y="140" width="130" height="30" as="geometry" />
        </mxCell>
        <mxCell id="kWIKreuAtAlw_i0hymki-31" style="edgeStyle=orthogonalEdgeStyle;rounded=0;orthogonalLoop=1;jettySize=auto;html=1;exitX=0.5;exitY=1;exitDx=0;exitDy=0;entryX=0.5;entryY=0;entryDx=0;entryDy=0;" edge="1" parent="kWIKreuAtAlw_i0hymki-26" source="kWIKreuAtAlw_i0hymki-27" target="kWIKreuAtAlw_i0hymki-30">
          <mxGeometry relative="1" as="geometry" />
        </mxCell>
        <mxCell id="kWIKreuAtAlw_i0hymki-32" value="Configure node tree" style="rounded=1;whiteSpace=wrap;html=1;fontSize=12;glass=0;strokeWidth=1;shadow=0;" vertex="1" parent="kWIKreuAtAlw_i0hymki-26">
          <mxGeometry x="50" y="190" width="130" height="30" as="geometry" />
        </mxCell>
        <mxCell id="kWIKreuAtAlw_i0hymki-33" style="edgeStyle=orthogonalEdgeStyle;rounded=0;orthogonalLoop=1;jettySize=auto;html=1;exitX=0.5;exitY=1;exitDx=0;exitDy=0;entryX=0.5;entryY=0;entryDx=0;entryDy=0;" edge="1" parent="kWIKreuAtAlw_i0hymki-26" source="kWIKreuAtAlw_i0hymki-30" target="kWIKreuAtAlw_i0hymki-32">
          <mxGeometry relative="1" as="geometry" />
        </mxCell>
        <mxCell id="kWIKreuAtAlw_i0hymki-34" value="Adding PNG output for the semantic map" style="rounded=1;whiteSpace=wrap;html=1;fontSize=12;glass=0;strokeWidth=1;shadow=0;" vertex="1" parent="kWIKreuAtAlw_i0hymki-26">
          <mxGeometry x="50" y="240" width="130" height="30" as="geometry" />
        </mxCell>
        <mxCell id="kWIKreuAtAlw_i0hymki-35" style="edgeStyle=orthogonalEdgeStyle;rounded=0;orthogonalLoop=1;jettySize=auto;html=1;exitX=0.5;exitY=1;exitDx=0;exitDy=0;entryX=0.5;entryY=0;entryDx=0;entryDy=0;" edge="1" parent="kWIKreuAtAlw_i0hymki-26" source="kWIKreuAtAlw_i0hymki-32" target="kWIKreuAtAlw_i0hymki-34">
          <mxGeometry relative="1" as="geometry" />
        </mxCell>
        <mxCell id="kWIKreuAtAlw_i0hymki-38" style="edgeStyle=orthogonalEdgeStyle;rounded=0;orthogonalLoop=1;jettySize=auto;html=1;exitX=1;exitY=0.5;exitDx=0;exitDy=0;entryX=0.5;entryY=0;entryDx=0;entryDy=0;" edge="1" parent="WIyWlLk6GJQsqaUBKTNV-1" source="kWIKreuAtAlw_i0hymki-19" target="kWIKreuAtAlw_i0hymki-26">
          <mxGeometry relative="1" as="geometry">
            <Array as="points">
              <mxPoint x="530" y="575" />
              <mxPoint x="530" y="405" />
              <mxPoint x="670" y="405" />
            </Array>
          </mxGeometry>
        </mxCell>
      </root>
    </mxGraphModel>
  </diagram>
</mxfile>
